#!OML:ASF X:\für Bonn\!DataBase\2005_08_10_Bjorn_Final\c3d\bjorn.ASF
:FULLY-SPECIFIED
:DEGREES
64
root -22.0233 19.4333 0.700794 21.2075 -89.378 -15.4323
lowerback -14.0734 1.94491 -3.78145
upperback 4.85012 3.81311 -4.54332
thorax 13.4328 1.66389 -1.95971
lowerneck 0.198629 -5.50041 4.35448
upperneck 6.12377 -7.33763 -2.32365
head 1.62807 -3.62981 -1.54567
rclavicle 1.51076e-014 2.70347e-014
rhumerus 0.440221 -11.6392 -82.3285
rradius 109.487
rwrist -8.72436
rhand -38.1726 22.6083
rfingers 7.12502
rthumb -11.2057 -7.07243
lclavicle 1.51076e-014 2.70347e-014
lhumerus -28.271 25.8087 74.3256
lradius 15.4978
lwrist -46.1924
lhand -16.1383 -7.73804
lfingers 7.12502
lthumb 10.0667 22.0012
rfemur -12.247 -13.9922 16.2077
rtibia 24.7319
rfoot -10.419 19.6866
rtoes 0.402003
lfemur -11.3581 16.4513 -16.5152
ltibia 23.9125
lfoot -9.8313 -16.4484
ltoes -1.69314
65
root -22.0158 19.4342 0.701211 26.7309 -89.4595 -20.9928
lowerback -14.1 2.03729 -3.8251
upperback 4.83566 3.95935 -4.68337
thorax 13.4444 1.734 -2.05437
lowerneck 0.227901 -5.61582 4.48696
upperneck 6.24975 -7.49594 -2.28953
head 1.65478 -3.70466 -1.56013
rclavicle -4.01545e-014 5.725e-014
rhumerus 2.48958 -10.9331 -81.4213
rradius 108.508
rwrist -8.7014
rhand -39.0797 23.4927
rfingers 7.12502
rthumb -12.0805 -6.13862
lclavicle -4.01545e-014 5.725e-014
lhumerus -27.94 25.6068 74.4196
lradius 15.4998
lwrist -46.0093
lhand -16.2998 -7.74107
lfingers 7.12502
lthumb 9.91092 22.0056
rfemur -12.2544 -14.0119 16.2334
rtibia 24.7421
rfoot -10.3757 19.7792
rtoes 0.311679
lfemur -11.3181 16.4178 -16.4831
ltibia 23.9001
lfoot -9.8362 -16.3217
ltoes -1.69755
66
root -22.0082 19.4346 0.701329 30.916 -89.5428 -25.2146
lowerback -14.1269 2.14105 -3.88723
upperback 4.82383 4.12615 -4.84252
thorax 13.4608 1.81271 -2.15494
lowerneck 0.247576 -5.73749 4.62298
upperneck 6.38983 -7.66552 -2.21718
head 1.68855 -3.78407 -1.5639
rclavicle 4.25399e-014 -5.725e-014
rhumerus 4.52053 -10.2825 -80.4531
rradius 107.392
rwrist -8.57938
rhand -39.7694 24.253
rfingers 7.12502
rthumb -12.7454 -5.33798
lclavicle 4.25399e-014 -5.725e-014
lhumerus -27.589 25.3908 74.5015
lradius 15.4915
lwrist -45.8168
lhand -16.4271 -7.82302
lfingers 7.12502
lthumb 9.78815 21.9295
rfemur -12.2601 -13.9818 16.2266
rtibia 24.7546
rfoot -10.3141 19.8311
rtoes 0.348105
lfemur -11.2787 16.4257 -16.4846
ltibia 23.8851
lfoot -9.86242 -16.2099
ltoes -1.85424
67
root -22.0009 19.4343 0.701852 39.1966 -89.6195 -33.5237
lowerback -14.1567 2.24334 -3.93981
upperback 4.79931 4.28689 -4.98344
thorax 13.4637 1.88888 -2.24166
lowerneck 0.298365 -5.85756 4.71467
upperneck 6.52384 -7.83052 -2.1562
head 1.71621 -3.86232 -1.56238
rclavicle -3.97569e-015 4.92986e-014
rhumerus 6.52736 -9.62735 -79.3993
rradius 106.1
rwrist -8.32189
rhand -40.1669 24.9269
rfingers 7.12502
rthumb -13.1286 -4.6398
lclavicle -3.97569e-015 4.92986e-014
lhumerus -27.2643 25.0833 74.6123
lradius 15.4921
lwrist -45.4985
lhand -16.5321 -7.9088
lfingers 7.12502
lthumb 9.68683 21.8485
rfemur -12.2755 -13.9728 16.2362
rtibia 24.7665
rfoot -10.2555 19.9105
rtoes 0.408998
lfemur -11.247 16.3422 -16.4714
ltibia 23.8711
lfoot -9.87209 -16.0359
ltoes -1.83858
68
root -21.9935 19.4356 0.701999 50.4099 -89.6804 -44.7597
lowerback -14.1962 2.34886 -3.98428
upperback 4.79602 4.45341 -5.13365
thorax 13.4996 1.96822 -2.34202
lowerneck 0.261847 -5.977 4.85688
upperneck 6.66422 -7.99882 -2.10948
head 1.7587 -3.94108 -1.57765
rclavicle 1.51076e-014 -7.15625e-014
rhumerus 8.55968 -9.03499 -78.3108
rradius 104.644
rwrist -7.95723
rhand -40.3228 25.4323
rfingers 7.12502
rthumb -13.279 -4.12469
lclavicle 1.51076e-014 -7.15625e-014
lhumerus -26.8843 24.9289 74.6744
lradius 15.4554
lwrist -45.3011
lhand -16.6406 -8.05529
lfingers 7.12502
lthumb 9.58216 21.7068
rfemur -12.2967 -13.9552 16.2487
rtibia 24.7756
rfoot -10.1759 19.9679
rtoes 0.51971
lfemur -11.2263 16.3119 -16.4592
ltibia 23.8606
lfoot -9.89706 -15.9007
ltoes -1.88577
69
root -21.9862 19.4359 0.702877 65.79 -89.7051 -60.1772
lowerback -14.2159 2.45521 -4.00453
upperback 4.79781 4.61472 -5.27763
thorax 13.5313 2.0471 -2.45094
lowerneck 0.199186 -6.09644 4.97358
upperneck 6.84731 -8.16966 -2.05514
head 1.82076 -4.02094 -1.58883
rclavicle 6.75868e-015 -1.90833e-014
rhumerus 10.603 -8.50104 -77.1994
rradius 103.045
rwrist -7.51328
rhand -40.3325 25.8283
rfingers 7.12502
rthumb -13.2883 -3.7281
lclavicle 6.75868e-015 -1.90833e-014
lhumerus -26.5277 24.8091 74.7219
lradius 15.4295
lwrist -45.1414
lhand -16.784 -8.18166
lfingers 7.12502
lthumb 9.44372 21.5868
rfemur -12.3074 -14.0333 16.2712
rtibia 24.7856
rfoot -10.0769 20.1184
rtoes 0.609894
lfemur -11.1929 16.282 -16.4277
ltibia 23.8497
lfoot -9.8879 -15.7718
ltoes -1.83147
70
root -21.9787 19.4364 0.703253 83.5608 -89.7215 -77.9758
lowerback -14.2511 2.56532 -4.04623
upperback 4.80172 4.78638 -5.42041
thorax 13.5743 2.12855 -2.54343
lowerneck 0.139289 -6.21537 5.07274
upperneck 7.01101 -8.34015 -1.99056
head 1.87723 -4.10073 -1.59331
rclavicle -3.57812e-015 4.77083e-015
rhumerus 12.6193 -8.02902 -76.0499
rradius 101.285
rwrist -7.08746
rhand -40.1877 26.2207
rfingers 7.12502
rthumb -13.1487 -3.3447
lclavicle -3.57812e-015 4.77083e-015
lhumerus -26.1505 24.6991 74.7674
lradius 15.3648
lwrist -45.0396
lhand -16.9775 -8.30674
lfingers 7.12502
lthumb 9.25702 21.47
rfemur -12.3254 -14.0777 16.2818
rtibia 24.7943
rfoot -9.97673 20.2406
rtoes 0.692669
lfemur -11.168 16.2007 -16.4181
ltibia 23.8403
lfoot -9.94045 -15.5774
ltoes -2.04805
